<svg xmlns="http://www.w3.org/2000/svg" width="40" height="77" viewBox="0 0 40 77" fill="none"><g clip-path="url(#clip0_4625_232)"><path d="M-0.395508 67.3261V0.0308228H39.9135V67.3261H-0.395508Z" fill="#1B3C2B"></path><path fill-rule="evenodd" clip-rule="evenodd" d="M14.5248 0.000305176C14.3894 0.571111 14.124 2.6192 14.1461 6.24513C14.1682 9.87105 14.1553 15.873 14.1461 18.4207C14.2913 23.2626 14.5691 33.2947 14.5181 34.6878C14.4671 36.0809 14.3836 37.7034 14.3482 38.3405V43.2036C14.4898 44.5203 14.0127 47.2003 10.9716 47.3872C7.17029 47.6208 6.5239 47.3349 4.71532 45.1071C4.55869 44.7938 4.40207 44.4677 4.24191 44.1342C3.17725 41.9173 1.95642 39.3752 -0.458984 38.1362C-0.42055 38.1561 -0.44297 39.4141 -0.458984 40.0406C0.135915 40.368 1.49819 41.5115 2.18809 43.4662C2.87799 45.4209 4.11246 46.9875 4.64346 47.5265L-0.458984 47.3872V48.6883C-0.303665 48.9822 0.182674 49.5727 0.885471 49.584C1.15211 49.5883 1.62238 49.5495 2.17781 49.5037C3.45238 49.3987 5.17543 49.2566 5.91558 49.5132C6.76574 49.8079 10.9457 49.0503 12.9294 48.6347L9.7388 50.5681C8.57817 51.227 5.79954 52.4596 3.97011 52.1195C1.68332 51.6943 0.0532234 51.9356 -0.458984 53.0043V54.4178C1.13613 53.9504 3.94713 53.3583 2.43026 54.728C0.913399 56.0978 -0.127929 57.1144 -0.458984 57.4515V60.1175C0.170848 59.2288 1.80283 57.224 3.29212 56.3138L5.26864 54.728C5.05281 55.5978 4.31415 57.8096 3.08614 59.6988C2.36292 60.8115 1.72692 61.2393 1.16571 61.6169C0.535776 62.0407 6.93202e-05 62.4011 -0.458984 63.5954V64.8795C-0.113659 64.3284 0.819052 63.2766 1.78729 63.4773C2.19901 63.5627 2.4758 63.7454 2.6897 63.8866C3.10457 64.1604 3.28287 64.2781 3.75033 63.2264C3.93946 62.8008 4.03708 62.3111 4.15101 61.7396C4.46386 60.1701 4.89975 57.9835 7.69117 54.8134C8.58659 53.8244 11.0741 51.4629 13.8607 49.9279L14.0162 49.8341C14.0981 49.5692 14.1899 49.2864 14.288 48.9842C14.9101 47.068 15.7867 44.368 15.9991 40.459C16.2666 35.192 16.6786 23.2144 16.1859 17.4398C16.1859 14.1121 16.0328 11.0619 15.897 8.35789C15.7279 4.99096 15.5858 2.16082 15.7999 0.000305176H14.5248ZM23.6941 54.1632C23.9832 46.3234 24.0328 14.7998 24.0214 0.0179634H25.637C25.7662 0.274645 25.9988 9.37508 25.9212 10.2796C25.8437 11.1841 25.5077 18.963 25.5077 21.6508C25.5077 23.8009 25.6048 26.1131 25.6534 27.0004V47.4282C26.2664 48.2593 27.2259 48.2388 28.1026 47.7463C28.8039 47.3522 29.6427 46.949 29.9745 46.7966C30.7507 43.7293 33.2116 42.3519 35.6968 41.5235C37.6849 40.8608 39.345 40.0719 39.9265 39.7603V41.444C36.6083 42.5058 38.5439 44.1974 39.9265 44.9105V46.7131C38.8507 46.1743 36.6193 44.7726 35.6968 43.8515C35.6662 43.8402 35.6373 43.8102 35.6022 43.7738C35.4218 43.5865 35.0789 43.2306 33.5063 44.3984C31.6285 45.7929 31.9328 46.7956 32.6217 46.9161L32.1557 48.455C30.866 47.7939 29.2188 48.8451 28.1026 49.5929C27.2096 50.1911 26.0977 49.7337 25.6534 49.4303C25.2632 52.0833 27.5571 52.5081 28.7528 52.3889H31.4404C32.069 48.9968 36.2955 48.6392 37.6935 48.6175C38.8119 48.6002 39.6482 48.4441 39.9265 48.3683V49.8855C39.4394 50.3515 37.2337 50.6358 35.0791 50.764C33.3555 50.8665 32.9655 51.8442 32.986 52.3202H39.9265V54.027C39.058 54.7171 34.4389 54.9499 32.7724 54.4051C31.4393 53.9693 28.6276 53.8033 27.3885 53.7748C27.4739 54.0846 29.3113 54.9926 31.3089 55.8366C32.907 56.5117 37.7199 57.0508 39.9265 57.236V59.0854C39.953 59.126 39.7259 59.1296 38.6054 58.819C37.4849 58.5084 36.9434 58.6338 36.8127 58.7353C36.847 58.8596 37.1035 59.2133 37.8556 59.6335C38.6077 60.0537 39.5496 61.0575 39.9265 61.5069V63.8192C38.3001 61.7559 35.8486 60.2757 35.2265 59.9001C35.1347 59.8446 35.0827 59.8132 35.0791 59.8076C36.6719 62.326 37.7393 65.8878 38.0739 67.3539H36.4163C36.4256 66.7932 36.0152 64.9447 34.2991 62.0363C32.154 58.4007 30.4129 57.2028 28.8528 56.3949C27.6047 55.7486 26.2898 54.547 25.7884 54.027C25.858 55.782 28.6717 58.3729 29.8696 59.4036C31.0675 60.4344 32.5165 62.2385 33.0882 63.0724C33.6598 63.9063 33.6127 65.3993 33.2832 65.3993C32.5404 65.3653 31.3788 63.7452 30.3448 62.3031L30.3447 62.303C29.9463 61.7474 29.5669 61.2181 29.2376 60.8162C28.0536 59.3709 28.9093 61.8206 29.6716 62.9062C30.2814 63.7748 31.499 66.2333 32.0316 67.3539H30.2015C29.407 64.3689 25.5322 57.3164 23.6941 54.1632ZM19.1449 17.2803C18.9221 14.1035 18.9512 4.45213 18.9936 0.0235252H20.351C21.0316 2.2152 21.0937 15.5568 21.0397 21.9537C20.5212 23.1528 20.52 41.0001 20.5842 49.7739C21.0055 60.0057 21.7729 60.2831 22.2903 60.47C22.3894 60.5058 22.4793 60.5383 22.5558 60.6368C22.9369 61.1267 24.4272 65.3059 25.1247 67.3342H23.5085C22.7872 66.2683 21.5294 62.289 20.9907 60.4326C20.3783 62.6722 21.1212 65.9668 21.5691 67.3342H18.8982C19.6468 65.0979 19.3916 61.9374 19.1704 60.6368C18.9118 62.2699 17.4749 65.7822 16.7887 67.3342H15.0025L17.8775 60.7218V60.4326C18.2639 59.8201 19.0366 57.9831 19.0366 55.5353C19.0366 55.3578 19.0371 55.1861 19.0376 55.0206C19.0451 52.3316 19.048 51.2928 16.9197 54.4768C15.1123 57.1808 14.53 60.4185 14.4647 61.6993C14.4647 61.6993 14.5596 62.743 14.5537 63.1047C14.5225 64.2865 14.2529 66.2087 13.4244 64.4431C12.5959 62.6776 12.9491 59.9726 13.2292 58.8408C10.8513 61.7478 10.8067 62.229 10.7473 62.8697C10.7276 63.0821 10.7063 63.3121 10.5978 63.6537L7.04118 67.3342H4.8551L9.02193 63.0351C9.94897 59.8703 11.8857 57.8426 12.2369 57.6332C12.5178 57.4656 13.2369 56.6106 13.5613 56.204C13.9663 55.6927 14.392 54.9769 12.8544 56.204C10.9325 57.7379 8.81954 59.0315 8.88635 58.3209C9.15302 56.2717 11.2763 54.7809 13.1246 53.9261C14.973 53.0712 18.0079 51.0811 18.7679 49.7739C19.3759 48.7282 19.2726 27.6758 19.1449 17.2803Z" fill="#D4C8B8"></path></g><rect x="0.34807" y="0.31682" width="39.3032" height="65.9278" stroke="#D4C8B8" stroke-width="0.633639"></rect><path d="M2.50748 76.0367C2.1322 76.0367 1.76453 75.9835 1.40446 75.877C1.04947 75.7654 0.750261 75.6133 0.506836 75.4205L0.932829 74.6522C1.12554 74.8095 1.35882 74.9362 1.63267 75.0326C1.90653 75.1289 2.19306 75.1771 2.49227 75.1771C2.84726 75.1771 3.12365 75.1061 3.32143 74.9641C3.51922 74.8171 3.61811 74.6193 3.61811 74.3708C3.61811 74.1274 3.52682 73.9346 3.34425 73.7926C3.16169 73.6506 2.86755 73.5796 2.46184 73.5796H1.97499V72.9026L3.4964 71.0922L3.62571 71.4649H0.765475V70.6357H4.39402V71.2975L2.87262 73.108L2.35534 72.8037H2.65202C3.30622 72.8037 3.7956 72.9508 4.12017 73.2449C4.44981 73.534 4.61463 73.9068 4.61463 74.3632C4.61463 74.6624 4.53856 74.9388 4.38642 75.1923C4.23428 75.4459 4.00099 75.6513 3.68657 75.8085C3.37722 75.9606 2.98419 76.0367 2.50748 76.0367Z" fill="#D4C8B8"></path><path d="M7.08715 75.9606V70.6357H9.27797C9.7496 70.6357 10.1528 70.7118 10.4875 70.8639C10.8273 71.0161 11.0884 71.2342 11.271 71.5181C11.4536 71.8021 11.5449 72.1394 11.5449 72.5299C11.5449 72.9204 11.4536 73.2576 11.271 73.5416C11.0884 73.8205 10.8273 74.0361 10.4875 74.1882C10.1528 74.3353 9.7496 74.4088 9.27797 74.4088H7.63485L8.07606 73.96V75.9606H7.08715ZM10.5712 75.9606L9.22472 74.0285H10.2821L11.6361 75.9606H10.5712ZM8.07606 74.0665L7.63485 73.5949H9.23233C9.66846 73.5949 9.99556 73.501 10.2136 73.3134C10.4368 73.1258 10.5483 72.8646 10.5483 72.5299C10.5483 72.1901 10.4368 71.9289 10.2136 71.7464C9.99556 71.5638 9.66846 71.4725 9.23233 71.4725H7.63485L8.07606 70.9857V74.0665Z" fill="#D4C8B8"></path><path d="M16.5917 76.0367C16.1759 76.0367 15.793 75.9683 15.443 75.8313C15.0931 75.6944 14.7888 75.5042 14.5302 75.2608C14.2716 75.0123 14.0712 74.7232 13.9292 74.3936C13.7872 74.0589 13.7162 73.6938 13.7162 73.2982C13.7162 72.9026 13.7872 72.54 13.9292 72.2104C14.0712 71.8757 14.2716 71.5866 14.5302 71.3432C14.7888 71.0947 15.0931 70.902 15.443 70.7651C15.793 70.6281 16.1733 70.5597 16.5841 70.5597C16.9999 70.5597 17.3803 70.6281 17.7251 70.7651C18.0751 70.902 18.3794 71.0947 18.638 71.3432C18.8966 71.5866 19.0969 71.8757 19.2389 72.2104C19.3809 72.54 19.4519 72.9026 19.4519 73.2982C19.4519 73.6938 19.3809 74.0589 19.2389 74.3936C19.0969 74.7283 18.8966 75.0174 18.638 75.2608C18.3794 75.5042 18.0751 75.6944 17.7251 75.8313C17.3803 75.9683 17.0025 76.0367 16.5917 76.0367ZM16.5841 75.1695C16.8529 75.1695 17.1014 75.1239 17.3296 75.0326C17.5578 74.9413 17.7556 74.812 17.9229 74.6446C18.0903 74.4722 18.2196 74.2744 18.3109 74.0513C18.4072 73.8231 18.4554 73.572 18.4554 73.2982C18.4554 73.0243 18.4072 72.7758 18.3109 72.5527C18.2196 72.3245 18.0903 72.1267 17.9229 71.9594C17.7556 71.7869 17.5578 71.6551 17.3296 71.5638C17.1014 71.4725 16.8529 71.4269 16.5841 71.4269C16.3153 71.4269 16.0668 71.4725 15.8386 71.5638C15.6155 71.6551 15.4177 71.7869 15.2453 71.9594C15.0779 72.1267 14.946 72.3245 14.8497 72.5527C14.7584 72.7758 14.7128 73.0243 14.7128 73.2982C14.7128 73.567 14.7584 73.8155 14.8497 74.0437C14.946 74.2719 15.0779 74.4722 15.2453 74.6446C15.4126 74.812 15.6104 74.9413 15.8386 75.0326C16.0668 75.1239 16.3153 75.1695 16.5841 75.1695Z" fill="#D4C8B8"></path><path d="M24.4406 76.0367C24.0247 76.0367 23.6419 75.9683 23.2919 75.8313C22.942 75.6944 22.6377 75.5042 22.3791 75.2608C22.1205 75.0123 21.9201 74.7232 21.7781 74.3936C21.6361 74.0589 21.5651 73.6938 21.5651 73.2982C21.5651 72.9026 21.6361 72.54 21.7781 72.2104C21.9201 71.8757 22.1205 71.5866 22.3791 71.3432C22.6377 71.0947 22.942 70.902 23.2919 70.7651C23.6419 70.6281 24.0222 70.5597 24.433 70.5597C24.8488 70.5597 25.2292 70.6281 25.574 70.7651C25.924 70.902 26.2283 71.0947 26.4869 71.3432C26.7455 71.5866 26.9458 71.8757 27.0878 72.2104C27.2298 72.54 27.3008 72.9026 27.3008 73.2982C27.3008 73.6938 27.2298 74.0589 27.0878 74.3936C26.9458 74.7283 26.7455 75.0174 26.4869 75.2608C26.2283 75.5042 25.924 75.6944 25.574 75.8313C25.2292 75.9683 24.8514 76.0367 24.4406 76.0367ZM24.433 75.1695C24.7018 75.1695 24.9503 75.1239 25.1785 75.0326C25.4067 74.9413 25.6045 74.812 25.7718 74.6446C25.9392 74.4722 26.0685 74.2744 26.1598 74.0513C26.2561 73.8231 26.3043 73.572 26.3043 73.2982C26.3043 73.0243 26.2561 72.7758 26.1598 72.5527C26.0685 72.3245 25.9392 72.1267 25.7718 71.9594C25.6045 71.7869 25.4067 71.6551 25.1785 71.5638C24.9503 71.4725 24.7018 71.4269 24.433 71.4269C24.1642 71.4269 23.9157 71.4725 23.6875 71.5638C23.4644 71.6551 23.2666 71.7869 23.0942 71.9594C22.9268 72.1267 22.7949 72.3245 22.6986 72.5527C22.6073 72.7758 22.5617 73.0243 22.5617 73.2982C22.5617 73.567 22.6073 73.8155 22.6986 74.0437C22.7949 74.2719 22.9268 74.4722 23.0942 74.6446C23.2615 74.812 23.4593 74.9413 23.6875 75.0326C23.9157 75.1239 24.1642 75.1695 24.433 75.1695Z" fill="#D4C8B8"></path><path d="M30.8003 75.9606V71.4725H29.0355V70.6357H33.554V71.4725H31.7892V75.9606H30.8003Z" fill="#D4C8B8"></path><path d="M37.3403 76.0367C36.9244 76.0367 36.5263 75.9784 36.146 75.8618C35.7656 75.74 35.4639 75.5854 35.2407 75.3977L35.583 74.6294C35.796 74.7968 36.0597 74.9362 36.3742 75.0478C36.6886 75.1594 37.0106 75.2152 37.3403 75.2152C37.6192 75.2152 37.8449 75.1847 38.0173 75.1239C38.1897 75.063 38.3165 74.9819 38.3976 74.8804C38.4788 74.774 38.5194 74.6548 38.5194 74.5229C38.5194 74.3606 38.461 74.2313 38.3444 74.135C38.2277 74.0335 38.0756 73.9549 37.888 73.8991C37.7054 73.8383 37.5 73.7825 37.2718 73.7318C37.0487 73.6811 36.823 73.6228 36.5948 73.5568C36.3716 73.4858 36.1662 73.3971 35.9786 73.2906C35.796 73.179 35.6464 73.0319 35.5298 72.8494C35.4132 72.6668 35.3548 72.4335 35.3548 72.1495C35.3548 71.8605 35.4309 71.5968 35.583 71.3584C35.7403 71.115 35.9761 70.9223 36.2905 70.7803C36.61 70.6332 37.0132 70.5597 37.5 70.5597C37.8195 70.5597 38.1365 70.6002 38.4509 70.6814C38.7653 70.7625 39.0392 70.8792 39.2724 71.0313L38.9606 71.7996C38.7222 71.6576 38.4762 71.5536 38.2227 71.4877C37.9691 71.4167 37.7257 71.3812 37.4924 71.3812C37.2185 71.3812 36.9954 71.4142 36.823 71.4801C36.6556 71.546 36.5314 71.6323 36.4502 71.7388C36.3742 71.8452 36.3361 71.967 36.3361 72.1039C36.3361 72.2662 36.3919 72.398 36.5035 72.4995C36.6201 72.5958 36.7697 72.6719 36.9523 72.7277C37.1399 72.7834 37.3479 72.8392 37.5761 72.895C37.8043 72.9457 38.03 73.0041 38.2531 73.07C38.4813 73.1359 38.6867 73.2221 38.8693 73.3286C39.0569 73.4351 39.2065 73.5796 39.3181 73.7622C39.4347 73.9448 39.493 74.1755 39.493 74.4545C39.493 74.7385 39.4144 75.0022 39.2572 75.2456C39.1051 75.4839 38.8693 75.6767 38.5498 75.8237C38.2303 75.9657 37.8271 76.0367 37.3403 76.0367Z" fill="#D4C8B8"></path><defs><clipPath id="clip0_4625_232"><rect x="0.03125" width="39.9369" height="66.5614" fill="white"></rect></clipPath></defs></svg>