<svg id="bbbs-logo" xmlns="http://www.w3.org/2000/svg" viewBox="0 0 605.7 276.8">
  <style>
    .st0{ stroke-width:13 }
    .st0,.st1,.st2{ fill:none; stroke:#fff; stroke-miterlimit:10}
    .st2{ stroke:#00fc87; stroke-width:13}
  </style>
  <g id="C1">
    <g id="_5">
      <path class="lb-1 st0" d="M86.8 109h13.5c21.6 0 40.8 7.1 59.6 18.5 23.5 19.8 29.7 30.4 33.7 56.5 4.1 27.3-12.8 55.4-33.7 68.5-16.9 10.6-38.1 18.4-59.6 18.4l-93.3-1V1"/>
      <path class="lb-2 st0" d="M86.8 138h13.5c16.2 0 30.1 5.1 42.4 12.9 13.4 10.1 21.1 18.9 21.9 37.1.8 16.9-5.1 28.3-20.1 40-12.4 7.6-22.1 12.9-37.2 12.9H35.9V0"/>
      <path class="lb-3 st0" d="M86.6 167.5h12c23-.4 38.4 11.8 38 22.3-.6 11.8-10.9 20.2-31.8 23.2H63.9V0"/>
      <path class="ub-1 st2" d="M186.1 119.8c6.2-6.5 9.8-28.8 8.1-41.4-3.4-20.5-12.2-36-34.3-54.9C138.7 10.2 126.1 7 100.3 7H86.8"/>
      <path class="ub-2 st2" d="M161.4 103c2.2-5.3 3.3-11 3.3-16.7 0-16.3-9.1-31.1-24.9-40.8-11.3-6.9-25.8-10.6-40.6-10.6H86.8"/>
      <path class="ub-3 st2" d="M135.6 92c.6-1.7 1-3.5 1-5.2 0-12.9-16.6-22.9-37.8-22.9h-12"/>
      <path d="M261.2 29.2c9.1 0 15.8 5.4 15.8 14.3v2.6c0 5.5-2.9 9.1-5.9 10.5 3.9 1.5 7.2 5.5 7.2 12v3.1c0 9.6-7 15.1-17.3 15.1h-16c-1.2.1-2.2-.7-2.3-1.9V31.5c-.1-1.1.7-2.2 1.8-2.3h16.7zm-9.4 24.1h7.9c4.5 0 8-2 8-7.1v-1.4c0-5-3.5-7.2-8.1-7.2h-7.8v15.7zm0 25.1h8.1c5.4 0 9.1-2.5 9.1-7.7v-1.8c0-5.2-3.5-7.7-8.9-7.7h-8.2l-.1 17.2zm43.8-44.5c0 2.8-2.2 5-5 5h-.1c-2.7.1-4.9-2.1-5-4.8v-.2c0-2.8 2.3-5 5-5 2.8-.1 5.1 2.2 5.1 5zm-.8 50.6c.1 1.1-.7 2.2-1.8 2.3h-4.5c-1.2.1-2.2-.7-2.3-1.9V49.6c-.1-1.2.7-2.2 1.9-2.3h4.4c1.1-.1 2.2.7 2.3 1.8v35.4zM334 52.2c.1 1.1-.7 2.2-1.8 2.3h-2.3c.9 1.6 1.4 3.3 1.5 5.2v3.1c0 7.9-5.5 13.1-14.1 13.1-1.6 0-3.2-.2-4.7-.5-.4.7-.6 1.6-.6 2.4 0 2.1 1.5 3.1 4.9 3.1h2.2c7.5 0 13.7 3.8 13.7 11.3v2.5c0 7.3-6.1 11.8-15.3 11.8s-15.3-4.5-15.3-11.8v-1.8c0-3.4 1.7-6.5 4.5-8.4-1.6-1.5-2.5-3.7-2.5-5.9 0-2.4.7-4.7 2.2-6.6-2.5-2.4-3.8-5.7-3.7-9.2v-3.1c0-7.9 5.8-13.1 14.2-13.1 1.5 0 3 .2 4.4.7h10.5c1.2-.1 2.2.7 2.3 1.9v3zm-18.2 35.6c-2.8.2-5.1 1.8-5.1 4.9v1.5c0 3.2 2.8 5 6.7 5s6.6-1.8 6.6-5v-1.5c0-3.2-2.8-4.8-6.2-4.8h-2zm7-27.8c0-3.8-1.9-6.2-5.8-6.2s-5.8 2.4-5.8 6.2v2.5c0 3.8 1.9 6.2 5.8 6.2s5.8-2.4 5.8-6.2V60zM372 29.2c9.1 0 15.8 5.4 15.8 14.3v2.6c0 5.5-2.9 9.1-5.9 10.5 3.9 1.5 7.2 5.5 7.2 12v3.1c0 9.6-7 15.1-17.3 15.1h-16c-1.2.1-2.2-.7-2.3-1.9V31.5c-.1-1.1.7-2.2 1.8-2.3H372zm-9.4 24.1h7.9c4.5 0 8-2 8-7.1v-1.4c0-5-3.5-7.2-8.1-7.2h-7.8v15.7zm0 25.1h8.1c5.4 0 9.1-2.5 9.1-7.7v-1.8c0-5.2-3.5-7.7-8.9-7.7h-8.2v17.2zm52.6-29.1V53c0 1.5-.2 2.3-.6 2.3h-.7c-3.8 0-8 3.8-8 9.2v19.9c.2 1.1-.6 2.1-1.6 2.3h-4.7c-1.2.1-2.2-.7-2.3-1.9V49.6c-.1-1.2.7-2.2 1.9-2.3h3.9c1.1-.1 2.2.7 2.3 1.8V52c1.8-3 4.9-4.9 8.4-5 .8.5 1.3 1.3 1.4 2.3zM450 61.6v10.9c0 9.2-6 15.1-15.3 15.1s-15.2-5.9-15.2-15.1V61.6c0-9.2 6-15 15.2-15s15.3 5.8 15.3 15zm-21.8.4v10.1c0 4.8 2.5 7.9 6.6 7.9s6.5-3.1 6.5-7.9V62c0-4.8-2.4-7.9-6.5-7.9s-6.6 3.1-6.6 7.9zm40.4 11.8c0 4.3 1.2 5.9 4.1 5.9.4 0 .7 0 1.1-.1 1.6-.2 2.5.4 2.5 1.9v2.9c.1 1.2-.7 2.4-1.9 2.6-1.3.3-2.6.4-3.9.4-6.4 0-10.5-3.4-10.4-11.1l.1-21.9h-3.3c-1.2.1-2.2-.7-2.3-1.9v-3c-.1-1.1.7-2.2 1.8-2.3h3.8l.1-11.1c-.2-1.1.5-2.1 1.6-2.3h4.8c1.2-.1 2.2.7 2.3 1.9v.4l-.1 11.1h5.3c1.1-.1 2.2.7 2.3 1.8v3.1c.1 1.1-.7 2.2-1.8 2.3h-5.8l-.3 19.4zM491.2 51c1.1-2.1 3.9-4.4 8.8-4.4 7.3 0 11.7 5 11.7 13.8v24.1c.1 1.1-.7 2.2-1.8 2.3h-4.6c-1.2.1-2.2-.7-2.3-1.9V62c0-4.3-1.9-7.2-5.7-7.2-3.5 0-6.1 3-6.1 7.2v22.3c.1 1.1-.7 2.2-1.8 2.3h-4.5c-1.2.1-2.2-.7-2.3-1.9V30.2c-.1-1.1.7-2.2 1.8-2.3h4.5c1.1-.1 2.2.7 2.3 1.8V51zm36.4 21.9c0 4.4 2.2 7.2 6 7.2 3.2 0 5.2-1.4 5.8-4 .4-1.4 1-2.2 2.5-2.2h4c1.5 0 2.5.9 2.2 2.5-1.3 6.8-6.4 11.2-14.3 11.2-9 0-14.8-5.8-14.8-15.1V61.7c0-9.2 5.5-15.1 14.8-15.1s14.6 6 14.6 15.6v5.6c.1 1.1-.7 2.2-1.8 2.3h-19v2.8zm0-11.6v2.1h12.1v-2.1c0-4.5-1.9-7.2-6-7.2-3.9-.1-6.1 2.7-6.1 7.2zm46.3-12V53c0 1.5-.2 2.3-.6 2.3h-.7c-3.8 0-8 3.8-8 9.2v19.9c.2 1.1-.6 2.1-1.6 2.3h-4.7c-1.2.1-2.2-.7-2.3-1.9V49.6c-.1-1.2.7-2.2 1.9-2.3h3.9c1.1-.1 2.2.7 2.3 1.8V52c1.8-3 4.9-4.9 8.4-5 .8.5 1.3 1.3 1.4 2.3zm31 7.9c.2 1.5-.6 2.4-2.2 2.4H599c-1.5 0-2.1-.7-2.5-2.1-.5-2.1-2.4-3.6-4.6-3.5-3.1 0-4.6 1.3-4.6 4.2 0 3.3 2.9 3.8 7.2 5.1 7 1.9 11.3 4.6 11.3 11.7 0 7.7-4.9 12.5-13.4 12.5-7.8 0-12.9-4.5-13.9-10.8-.3-1.5.6-2.4 2.2-2.4h3.8c1.4 0 2 .7 2.5 2.1.8 2.3 3.1 3.9 5.5 3.7 2.8 0 5.1-1.4 5.1-4.5 0-3.3-2.2-4.3-6.5-5.5-7.5-2-12-4.3-12-11.7s4.5-11.9 13.2-11.9c7.2.1 11.6 4.5 12.6 10.7zm-343.7 59.1c9.1 0 15.8 5.4 15.8 14.3v2.6c0 5.5-2.9 9.1-5.9 10.5 3.9 1.5 7.2 5.5 7.2 12v3.1c0 9.6-7 15.1-17.3 15.1h-16c-1.2.1-2.2-.7-2.3-1.9v-53.4c-.1-1.1.7-2.2 1.8-2.3h16.7zm-9.4 24.1h7.9c4.5 0 8-2 8-7.1v-1.4c0-5-3.5-7.2-8.1-7.2h-7.8v15.7zm0 25.1h8.1c5.4 0 9.1-2.5 9.1-7.7v-1.9c0-5.2-3.5-7.7-8.9-7.7h-8.2l-.1 17.3zm43.8-44.5c0 2.8-2.2 5-5 5h-.1c-2.7.1-4.9-2.1-5-4.8v-.2c0-2.8 2.3-5 5-5 2.8 0 5.1 2.2 5.1 5zm-.8 50.6c.1 1.1-.7 2.2-1.8 2.3h-4.5c-1.2.1-2.2-.7-2.3-1.9v-35.3c-.1-1.2.7-2.2 1.9-2.3h4.4c1.1-.1 2.2.7 2.3 1.8v35.4zm39.2-32.3c.1 1.1-.7 2.2-1.8 2.3h-2.3c.9 1.6 1.4 3.3 1.5 5.2v3.1c0 7.9-5.5 13.1-14.1 13.1-1.6 0-3.2-.2-4.7-.5-.4.7-.6 1.6-.6 2.4 0 2.1 1.5 3.1 4.9 3.1h2.2c7.5 0 13.7 3.9 13.7 11.3v2.5c0 7.3-6.1 11.8-15.3 11.8s-15.3-4.5-15.3-11.8V180c0-3.4 1.7-6.5 4.5-8.4-1.6-1.5-2.5-3.7-2.5-5.9 0-2.4.7-4.7 2.2-6.6-2.5-2.4-3.8-5.7-3.7-9.2v-3.1c0-7.9 5.8-13.1 14.2-13.1 1.5 0 3 .2 4.4.7h10.5c1.2-.1 2.2.7 2.3 1.9v.4l-.1 2.6zm-18.2 35.6c-2.8.2-5.1 1.8-5.1 4.9v1.5c0 3.1 2.8 5 6.7 5s6.6-1.9 6.6-5v-1.5c0-3.2-2.8-4.9-6.2-4.9h-2zm7-27.8c0-3.9-1.9-6.2-5.8-6.2s-5.8 2.4-5.8 6.2v2.5c0 3.9 1.9 6.2 5.8 6.2s5.8-2.4 5.8-6.2v-2.5zm63.3-17.3c.2 1.1-.5 2.1-1.5 2.4-.2 0-.5.1-.7 0h-4.8c-1.4 0-2.1-.8-2.4-2.2-.8-3.8-3.3-6.1-7.2-6.1-4.9 0-7.4 3-7.4 7.7 0 5.2 3.2 6.9 9.2 9 9.9 3.5 16.2 7.5 16.2 17.4 0 11.4-7.8 16.6-17.8 16.6s-16.9-5.5-18.2-15.4c-.2-1.1.5-2.1 1.5-2.4.2 0 .5-.1.7 0h4.8c1.4 0 2.1.8 2.4 2.2.7 4.3 4.5 7.4 8.8 7.2 4.7 0 8.5-2 8.5-7.6 0-5.2-3.5-7-10.3-9.4-8.2-2.9-15.2-6.5-15.2-17.2 0-9.2 6.2-16.6 16.7-16.6 9.4.1 15.6 5.3 16.7 14.4zm17.8-8.8c0 2.8-2.2 5-5 5h-.1c-2.7.1-4.9-2.1-5-4.8v-.2c0-2.8 2.3-5 5-5 2.9 0 5.1 2.2 5.1 5zm-.7 50.6c.1 1.1-.7 2.2-1.8 2.3h-4.5c-1.2.1-2.2-.7-2.3-1.9v-35.3c-.1-1.2.7-2.2 1.9-2.3h4.4c1.1-.1 2.2.7 2.3 1.8v35.4zm33.5-27.3c.2 1.5-.6 2.4-2.1 2.4h-3.7c-1.5 0-2.1-.7-2.5-2.1-.5-2.1-2.5-3.5-4.6-3.5-3.1 0-4.6 1.3-4.6 4.2 0 3.3 2.9 3.9 7.2 5.1 7 1.9 11.3 4.6 11.3 11.7 0 7.7-4.9 12.5-13.4 12.5-7.8 0-12.9-4.5-13.9-10.9-.3-1.5.6-2.4 2.1-2.4h3.8c1.4 0 2 .7 2.5 2.1.8 2.3 3.1 3.8 5.5 3.7 2.9 0 5.1-1.4 5.1-4.5 0-3.3-2.2-4.3-6.5-5.5-7.5-2.1-11.9-4.3-11.9-11.7s4.5-11.9 13.2-11.9c7.1.1 11.5 4.5 12.5 10.8zm18.8 16.5c0 4.3 1.2 5.9 4.1 5.9.4 0 .7 0 1.1-.1 1.6-.1 2.5.4 2.5 1.9v2.9c.1 1.2-.7 2.4-1.9 2.6-1.3.3-2.6.4-3.9.4-6.4 0-10.5-3.4-10.4-11.1l.1-21.9h-3.3c-1.2.1-2.2-.7-2.3-1.9v-3c-.1-1.1.7-2.2 1.8-2.3h3.9l.1-11.1c-.2-1.1.5-2.1 1.6-2.3h4.8c1.2-.1 2.2.7 2.3 1.9v.4l-.1 11.1h5.2c1.1-.1 2.2.7 2.3 1.8v3.1c.1 1.1-.7 2.2-1.8 2.3h-5.8l-.3 19.4zm21.6-.8c0 4.4 2.2 7.2 6 7.2 3.2 0 5.2-1.4 5.8-4 .4-1.4 1-2.1 2.5-2.1h4c1.5 0 2.5.9 2.2 2.5-1.3 6.9-6.4 11.2-14.3 11.2-9 0-14.8-5.8-14.8-15.1v-10.8c0-9.2 5.5-15.1 14.8-15.1 9.1 0 14.6 6 14.6 15.6v5.6c.1 1.1-.7 2.2-1.8 2.3h-19v2.7zm0-11.6v2.1h12.1v-2.1c0-4.5-1.9-7.2-6-7.2-3.9-.1-6.1 2.7-6.1 7.2zm46.9-12v3.8c0 1.5-.2 2.3-.6 2.3h-.7c-3.8 0-8 3.9-8 9.2v19.9c.2 1.1-.6 2.1-1.6 2.3h-4.7c-1.2.1-2.2-.7-2.3-1.9v-35.3c-.1-1.2.7-2.2 1.9-2.3h3.9c1.1-.1 2.2.7 2.3 1.8v2.8c1.8-3 4.9-4.9 8.4-5 .8.5 1.3 1.4 1.4 2.4zm31 7.9c.2 1.5-.6 2.4-2.2 2.4h-3.7c-1.5 0-2.1-.7-2.5-2.1-.5-2.1-2.5-3.5-4.6-3.5-3.1 0-4.6 1.3-4.6 4.2 0 3.3 2.9 3.9 7.2 5.1 7 1.9 11.3 4.6 11.3 11.7 0 7.7-4.9 12.5-13.4 12.5-7.8 0-12.9-4.5-13.9-10.9-.3-1.5.6-2.4 2.2-2.4h3.8c1.4 0 2 .7 2.5 2.1.8 2.3 3.1 3.8 5.5 3.7 2.8 0 5.1-1.4 5.1-4.5 0-3.3-2.2-4.3-6.5-5.5-7.5-2.1-11.9-4.3-11.9-11.7s4.5-11.9 13.2-11.9c7.1.1 11.5 4.5 12.5 10.8zm24.4 23.4c.1 3.8-2.8 6.9-6.6 7s-6.9-2.8-7-6.6c-.1-3.8 2.8-6.9 6.6-7h.2c3.6-.1 6.7 2.7 6.8 6.3v.3zm-1.2 0c.1-3.1-2.4-5.7-5.6-5.8s-5.7 2.4-5.8 5.6c-.1 3.1 2.4 5.7 5.6 5.8h.1c3 .1 5.5-2.2 5.7-5.2v-.4zm-2.6-1.4c0 .8-.4 1.6-1.2 2l1.1 2.4c.2.5 0 .9-.6.9h-.1c-.4 0-.8-.2-.9-.6l-1.1-2.4h-1.5v2.2c.1.4-.2.7-.6.8h-.2c-.4 0-.7-.3-.8-.6v-6.5c-.1-.4.2-.7.6-.8h2.5c1.6 0 2.8.8 2.8 2.4v.2zm-2.9 1.1c.7 0 1.2-.4 1.2-1.1v-.2c0-.7-.5-1.1-1.2-1.1h-1.4v2.4h1.4z" fill="#fff"/>
      <path d="M261.6 229.6v8c0 6.5-3.6 10.6-9.5 10.6s-9.5-4.1-9.5-10.6v-8c0-6.4 3.5-10.6 9.5-10.6 5.9.1 9.5 4.2 9.5 10.6zm-15.6.1v7.9c0 4.7 2.2 7.4 6 7.4s6-2.7 6-7.4v-7.9c0-4.6-2.1-7.4-6-7.4s-6 2.8-6 7.4zm34.7-8.1c.1.5-.3.9-.8 1h-9.2v9.4h8.4c.5-.1.9.3 1 .8v1.3c.1.5-.3.9-.8 1h-8.6v11.7c.1.5-.3.9-.8 1H268.3c-.5.1-.9-.3-1-.8V220.4c0-.5.3-1 .8-1h11.7c.5-.1.9.3 1 .8v.2l-.1 1.2zm26.5 26.3c-.5 0-1-.3-1.2-.8l-5.3-11.1h-4.4v10.8c.1.5-.3.9-.8 1H294c-.5.1-.9-.3-1-.8v-26.5c-.1-.5.3-.9.8-1H299.9c5.3 0 9 2.4 9 7.8v1c0 3.7-1.8 6-4.6 7.1l5.3 11.3c.3.7 0 1.2-.8 1.2h-1.6zm-7.6-15c3.3 0 5.7-1.4 5.7-4.7v-.8c0-3.4-2.3-4.7-5.7-4.7h-3.3v10.2h3.3zm31.9 14c.1.5-.3.9-.8 1H329c-.5.1-.9-.3-1-.8V234.8h-10v12.1c.1.5-.3.9-.8 1H315.6c-.5.1-.9-.3-1-.8V220.5c-.1-.5.3-.9.8-1H317c.5-.1.9.3 1 .8V231.6h10v-11.1c-.1-.5.3-.9.8-1H330.4c.5-.1.9.3 1 .8v.2l.1 26.4zm24.6-17.3v8c0 6.5-3.6 10.6-9.5 10.6s-9.5-4.1-9.5-10.6v-8c0-6.4 3.5-10.6 9.5-10.6s9.5 4.2 9.5 10.6zm-15.5.1v7.9c0 4.7 2.2 7.4 6 7.4s6-2.7 6-7.4v-7.9c0-4.6-2.1-7.4-6-7.4s-6 2.8-6 7.4zm29-10.2c5.9 0 10.1 3.8 10.1 10.6v7.3c0 6.8-4.1 10.6-10.1 10.6h-6.8c-.5.1-.9-.3-1-.8V220.6c-.1-.5.3-.9.8-1h.2l6.8-.1zm-4.4 25.2h4.2c4.1 0 6.7-2.7 6.7-7.5v-7.1c0-4.8-2.5-7.4-6.7-7.4h-4.2v22zm34-23.1c.1.5-.3.9-.8 1h-9.7v9h8.9c.5-.1.9.3 1 .8v1.3c.1.5-.3.9-.8 1h-9.1v9.8h9.5c.5-.1.9.3 1 .8v1.3c.1.5-.3.9-.8 1h-12.1c-.5.1-.9-.3-1-.8v-26.5c-.1-.5.3-.9.8-1h12.1c.5-.1.9.3 1 .8v1.5zm16.7 25.3c.1.5-.3.9-.8 1H413.5c-.5.1-.9-.3-1-.8V220.5c-.1-.5.3-.9.8-1H414.9c.5-.1.9.3 1 .8V246.9zm21.4-21.1c.1.5-.2 1-.7 1.1h-1.8c-.5.1-1-.3-1.1-.9v-.1c-.2-2.1-2-3.7-4.1-3.5-2.9 0-4.4 1.8-4.4 4.5 0 3 1.9 4 5.1 5.1 4.9 1.8 7.9 3.5 7.9 8.4 0 5.5-3.7 7.9-8.4 7.9s-8-2.6-8.6-7.3c-.1-.7.3-1.1 1-1.1h1.5c.5-.1 1 .3 1.1.9v.1c.3 2.5 2.5 4.3 5 4.1 2.7 0 4.9-1.2 4.9-4.5 0-3.1-2-4-5.7-5.3-4-1.4-7.3-3-7.3-8.2 0-4.4 2.9-7.9 7.9-7.9 4.3 0 7.2 2.5 7.7 6.7zm18.6 18.9c.5-.1.9.3 1 .8v1.3c.1.5-.3.9-.8 1h-11.5c-.5.1-.9-.3-1-.8v-26.5c-.1-.5.3-.9.8-1H446c.5-.1.9.3 1 .8v24.4h8.9zm23.2 2.1c.2.7-.1 1.1-.9 1.1h-1.4c-.6 0-1.1-.3-1.2-.9l-1.9-6.5h-8.8L463 247c-.1.5-.6.9-1.2.9h-1.4c-.8 0-1.1-.4-.9-1.1l7.5-26.4c.1-.5.6-.9 1.2-.9h2.2c.5-.1 1.1.3 1.1.8l7.6 26.5zm-6.1-9.5l-3.6-12.7-3.6 12.7h7.2zm27.7 9.6c.1.5-.3.9-.8 1H498.3c-.5 0-1-.3-1.2-.8l-9.8-19.8v19.5c.1.5-.3.9-.8 1H484.9c-.5.1-.9-.3-1-.8V220.4c-.1-.5.3-.9.8-1H486.3c.5 0 1 .3 1.2.8l9.8 19.8v-19.6c-.1-.5.3-.9.8-1H499.7c.5 0 1 .3 1 .8v26.7zm14.2-27.4c5.9 0 10.1 3.8 10.1 10.6v7.3c0 6.8-4.1 10.6-10.1 10.6H508c-.5.1-.9-.3-1-.8V220.6c-.1-.5.3-.9.8-1h.2l6.9-.1zm-4.4 25.2h4.2c4.1 0 6.7-2.7 6.7-7.5v-7.1c0-4.8-2.5-7.4-6.7-7.4h-4.2v22z" fill="#00fc87"/>
    </g>
  </g>
</svg>