<svg xmlns="http://www.w3.org/2000/svg" width="584" height="52" viewBox="0 0 584 52"><path fill="#fff" d="M95.6 26.375l-43.9 21.5-.4-.1-43.5-21.4c-.2-.1-.4-.4-.4-.6 0-.2.2-.5.4-.6l43.8-21.7.4.1 43.6 21.4c.2.1.4.4.4.6 0 .4-.2.6-.4.8zm7.4-1.2L51.9.075c-.2-.1-.4-.1-.5 0L.3 25.175c-.4.2-.4.8 0 1.1l51.1 25.1c.2.1.4.1.5 0l51.1-25.1c.4-.3.4-.9 0-1.1z"/><path fill="#fff" d="M58.6 15.975c.4.2.5.2.6 0l.2-.8c.1-.2.1-.2.5-.2s.4.1.4.5c0 .5.6 5.4.7 6.3 0 .2 0 .3-.1.3l-.6.2c-.2.1-.2-.1-.3-.3-.4-1.1-1.1-2.6-2.4-3.9-1.3-1.3-2.9-2.2-5.3-2.2-4.8 0-6.8 4.4-6.8 8.7 0 1.9.5 5.4 2.8 7.9 2 2.1 3.8 2.4 5.2 2.4 3.3 0 6-1.7 7.2-3.5.3-.4.4-.4.5-.4l.5.5c.1.1.1.2.1.3-1.8 2.6-4.7 5.1-9 5.1-3.9 0-6.1-1.1-7.9-2.8-2.2-2-3.3-5.5-3.3-8.2 0-3 1-5.8 3.1-8.1 1.6-1.8 4.2-3.2 7.9-3.2 2.7 0 4.9.8 6 1.4zm-49.4 9.7l42.5 20.9 42.5-20.9-42.5-20.9z"/><g><path fill="#fff" d="M135.8 16.475c1.4-.1 1.9-.2 2.2-.4.2-.1.3-.3.5-.3.1 0 .4.3.3.8-.2.8-.5 2.3-.6 3.4 0 .3-.2.8-.6.8-.2 0-.4-.2-.5-.9-.3-1.7-.6-1.9-2.1-2-.7 0-2.8 0-3.5.1-.2 0-.3.3-.3.4v6c0 3.3 0 6.4.1 7.9.1.9.3 1.5 2.3 1.9.4.1.7.4.7.6 0 .3-.5.4-.8.4-.2 0-3.5-.1-4.3-.1-.9 0-3.1.2-3.6.2-.6 0-.9-.1-.9-.3 0-.3.3-.5.6-.6 1.9-.5 2-.8 2.1-2.9.1-1.7.3-7.5.3-9.7v-3.4c0-.3-.2-.4-.3-.4-.5-.1-2.6-.1-3.3-.1-.5 0-1.3.3-1.6.7-.3.3-.6.8-1 1.5-.3.6-.5.8-.6.8-.3 0-.4-.3-.4-.6 0-.6.5-2.5.6-3.9 0-.1.3-.6.5-.6s.3.3.5.5c.1.1.6.4 1.2.5.6.1 4.5.2 6.4.2 1.5-.4 5.2-.4 6.1-.5zM148.7 24.775c2 0 5.8-.1 8.8-.1.1 0 .2-.3.3-.7.1-.4.1-3.7-.1-4.9-.1-1.1-.3-1.4-1.4-1.7-.4-.1-.9-.3-.9-.6 0-.2.3-.4 1-.4.4 0 2.5.1 3.3.1.9 0 2.8-.1 3.1-.1.6 0 .9.2.9.4 0 .3-.3.4-.9.6-1 .2-1.2.7-1.3 1.5-.1 1.4-.2 4-.2 8.1 0 2.8.1 4.4.1 5.3 0 1.1.3 1.2 1.5 1.6.5.2.8.4.8.6 0 .3-.4.4-.9.4s-2.1-.1-2.9-.1c-.6 0-3 .1-3.5.1-.7 0-1-.1-1-.4 0-.3.4-.5.8-.6 1.4-.4 1.5-.6 1.6-2.8.1-1.2.1-3.9.1-4.7 0-.3-.1-.4-.3-.4-2.3 0-8.3-.1-8.8 0-.1 0-.4.2-.4.4-.1 1.1 0 4.2 0 5.1 0 1.4.2 1.8 1.4 2.1.6.2 1 .4 1 .7 0 .3-.6.4-.9.4-.2 0-2.6-.1-3.6-.1-.7 0-2.1.1-3.1.1-.8 0-1-.1-1-.4 0-.3.3-.5.8-.6 1.3-.3 1.5-.7 1.7-1.9.1-1.2.3-5.5.3-9.5v-3.6c-.1-1-.3-1.3-1.3-1.6-.7-.2-1-.4-1-.6 0-.3.4-.4.9-.4.8 0 2.4.1 3.1.1 1.2 0 2.5-.1 3.2-.1.6 0 1 .1 1 .4 0 .3-.4.5-1 .6-1.2.3-1.3.8-1.3 2-.1 1-.2 4.4-.1 5-.1.6 0 .7.2.7zM178.2 16.575c1 0 2.1-.1 2.6-.2.1 0 .3.2.3.4v3.1c0 .4-.2.8-.5.8s-.5-.4-.6-.8c-.4-1.6-1.2-2-1.9-2.1-.6-.1-1.8-.2-4-.2-.1 0-.3.1-.4.8-.1.7-.1 4.8-.1 6.3 0 .1.1.3.3.3h2.3c2.1 0 2-.1 2.6-1.4.2-.4.4-.8.6-.8.2 0 .3.5.3.8-.1.8-.1 1.3-.1 2 0 .8.1 1.2.1 2 0 .5-.1.9-.4.9-.3 0-.5-.3-.6-.6-.4-1.3-.8-1.5-1.9-1.6-.9-.1-2-.1-2.9-.1-.1 0-.4.3-.4.3-.1.8-.1 3-.1 4 0 .7 0 1.8.1 2.4.1.3.3.6.6.7.5.1 1.4.2 2.3.2.9 0 1.9 0 2.7-.3.9-.3 1.7-1 2.3-2.1.4-.8.7-1 .9-1 .3 0 .3.6.2.8 0 .2-.8 2.9-1.1 3.4-.1.2-.6.4-.7.4-.3 0-7.5-.1-9.7-.1-1.9 0-2.3.1-3.3.1-.6 0-1-.1-1-.4 0-.3.4-.5.9-.6 1.5-.3 1.9-.6 2-2.2.1-1.2.2-3.5.2-7v-5.6c-.1-1-.3-1.6-1.5-1.9-.6-.1-.9-.2-.9-.5s.5-.4.9-.4c1.4 0 3.7.1 5.3.1h4.6zM208.8 16.575c.7.2 1.4.3 2.1.4.2 0 .4.3.4.8 0 .8.1 1.9.1 2.7 0 .6-.2 1.1-.5 1.1-.1 0-.4-.3-.6-.8-.3-.9-.7-1.7-1.2-2.1-1.2-1.1-2.7-1.7-4.3-1.7-4.6 0-6.8 3.6-6.8 8.1 0 1.9.3 3.6 1 4.9 1.6 3.2 4.2 4.3 6.5 4.3.4 0 1.8-.1 2.8-.7 1.1-.6 1.9-1.5 2.5-2.6.3-.6.6-.9.8-.9.3 0 .3.8.2 1.1-.1.7-.6 2-.9 2.5-.1.3-.6.7-1 .9-.4.1-2.4.8-5.1.8-4.3 0-7.3-1.9-8.5-3.3-1.1-1.3-2.4-3.3-2.4-6.5 0-3.5 1.9-6 3.2-7 2.5-2 5.5-2.6 7.8-2.6 1.5.1 2.9.3 3.9.6zM222.5 24.775c2 0 5.8-.1 8.8-.1.1 0 .2-.3.3-.7.1-.4.1-3.7-.1-4.9-.1-1.1-.3-1.4-1.4-1.7-.4-.1-.9-.3-.9-.6 0-.2.3-.4 1-.4.4 0 2.5.1 3.3.1.9 0 2.8-.1 3.1-.1.6 0 .9.2.9.4 0 .3-.3.4-.9.6-1 .2-1.2.7-1.3 1.5-.1 1.4-.2 4-.2 8.1 0 2.8.1 4.4.1 5.3 0 1.1.3 1.2 1.5 1.6.5.2.8.4.8.6 0 .3-.4.4-.9.4s-2.1-.1-2.9-.1c-.6 0-3 .1-3.5.1-.7 0-1-.1-1-.4 0-.3.4-.5.8-.6 1.4-.4 1.5-.6 1.6-2.8.1-1.2.1-3.9.1-4.7 0-.3-.1-.4-.3-.4-2.3 0-8.3-.1-8.8 0-.1 0-.4.2-.4.4-.1 1.1 0 4.2 0 5.1 0 1.4.2 1.8 1.4 2.1.6.2 1 .4 1 .7 0 .3-.6.4-.9.4-.2 0-2.6-.1-3.6-.1-.7 0-2.1.1-3.1.1-.8 0-1-.1-1-.4 0-.3.3-.5.8-.6 1.3-.3 1.5-.7 1.7-1.9.1-1.2.3-5.5.3-9.5v-3.6c-.1-1-.3-1.3-1.3-1.6-.7-.2-1-.4-1-.6 0-.3.4-.4.9-.4.8 0 2.4.1 3.1.1 1.2 0 2.5-.1 3.2-.1.6 0 1 .1 1 .4 0 .3-.4.5-1 .6-1.2.3-1.3.8-1.3 2-.1 1-.2 4.4-.1 5-.1.6 0 .7.2.7zM251.6 26.675c-1 0-3.1.1-4.2.1-.1 0-.2-.2-.2-.3.2-.7 1.6-4.3 2.1-5.7.1-.2.2-.3.3-.1.4 1 1.7 4.5 2.1 5.8 0 .2-.1.3-.1.2zm0-10c-.2-.6-.3-.6-.4-.6-.1 0-.3.1-.5.4-.2.3-1 1.2-1.3 1.6-.1.2-.2.3-.2.4 0 .2-.1.5-.2.6-1.2 2.8-4.3 11.1-5 12.5-.8 1.7-1.1 2.2-2.6 2.6-.6.2-.7.4-.7.6 0 .1.1.3.8.3.5 0 1.8-.1 2.9-.1 1.1 0 1.8.1 2.3.1.5 0 .9-.2.9-.4 0-.3-.2-.5-.8-.6-1.1-.3-1.4-.7-1.4-1.3 0-.6.3-1.9 1.2-4.2 0-.1.2-.3.3-.3.4 0 1.8-.1 4.9-.1.4 0 .7.3.7.4.6 1.8 1.2 3.4 1.3 4.2 0 .4 0 .9-1.2 1.2-.6.1-.8.4-.8.5 0 .2.3.4.9.4.7 0 1.8-.1 2.8-.1.9 0 3.1.1 3.8.1.7 0 1-.2 1-.4s-.3-.4-.8-.5c-1-.3-1.6-.6-2.6-2.9-.5-1.5-2.5-6.7-4.1-11.2-.4-1-.9-2.5-1.2-3.2zM264.8 16.475c1.8 0 2.4.1 4.7.1.1 0 .3.3.3.4.3.8.5 1.4 1.1 2.6 1.5 3 4.2 8.7 4.7 9.4.1.1.2.1.3.1.7-1.2 3.9-7.6 4.8-9.9.1-.4.7-1.6.8-2.2 0-.1.3-.4.3-.4 2 0 4.4-.1 4.6-.1.3 0 .8.1.8.3 0 .2-.3.4-.8.6-.5.1-.8.3-1.3.5s-.7.8-.7 2.3c0 4.9.2 10.6.3 12 .1 1 .4 1.5 1.9 1.8.5.1.8.4.8.6 0 .3-.4.4-.9.4-.3 0-3-.1-4.1-.1-.5 0-2.1.1-2.8.1-.4 0-.8-.1-.8-.4 0-.3.4-.5.8-.6 1.2-.3 1.3-1.2 1.4-2.3.1-1.4.1-8.9.1-10.4 0-.3-.2-.4-.3-.2-.9 1.9-3.4 7-4.2 9-.8 1.7-1.4 3.2-1.7 4.1-.3.8-.7.9-.8.9-.1 0-.4-.3-.6-.6-.1-.5-.5-1.6-1.1-3-1.5-3.7-4-9.1-4.6-10.2-.1-.1-.2-.1-.2.1-.2 1.9-.5 7-.5 10.2 0 1.7.3 2 1.8 2.5.6.2.8.4.8.6 0 .2-.3.4-.8.4-.9 0-2-.1-2.7-.1-.7 0-1.9.1-2.6.1-.4 0-.9-.1-.9-.4 0-.2.3-.4.8-.6 1.6-.6 1.9-.9 2.2-3 .3-2.2 1-9.1 1-11.7 0-.4-.1-1.5-1.1-1.7-.5-.1-.8-.3-1.2-.3-.2-.1-.6-.3-.6-.5.1-.3.3-.4 1-.4zM298.4 17.275c-.3 0-.7.1-.8.3-.1.1-.2.4-.3 1.1 0 .6 0 4.2-.1 7.5 0 2.6.1 4.5.1 5.2 0 1.8.1 2.3 1.8 2.7.6.1.8.3.8.6s-.5.4-.9.4c-.8 0-2.4-.1-3.7-.1-.8 0-2.3.1-3.2.1-.7 0-1.1-.1-1.1-.5 0-.2.4-.4.7-.5 1.4-.3 1.8-.8 1.9-2.1.1-1.2.1-3.1.1-4.5 0-1 0-7.5-.1-8.3-.1-1-.2-1.5-1.8-1.7-.4-.1-.7-.3-.7-.4 0-.2.3-.4.6-.5h1c1.9 0 4.2-.3 5.5-.3 2.8 0 4.7.5 5.9 1.7a5.3 5.3 0 0 1 1.7 3.9c0 2.4-1.1 3.7-1.9 4.4-.8.6-2.3 1.3-3.5 1.3-.3 0-1.1-.1-1.5-.2-.4-.2-.6-.3-.6-.6 0-.1.2-.3.4-.3h.4c1.2 0 3-1.5 3-4.5.3-2.3-1.3-4.7-3.7-4.7zM311 16.475c.8 0 2.1.1 2.9.1 1.1 0 3.1-.1 3.8-.1.7 0 .9.1.9.3 0 .3-.3.5-.6.6-1.6.4-1.8.8-1.8 1.2-.2 1.5-.2 4.4-.2 8.7 0 2 0 4.4.1 5.4.1.7.9 1.1 1 1.1.6.1 1.6.1 2.4.1.6 0 1.6 0 2.1-.1.3-.1.6-.1.9-.4.4-.4 1.1-1 1.8-2.3.3-.4.6-.6.8-.6.2 0 .2.3.1.8-.3 1-.8 2.6-.9 3.4-.1.2-.6.5-.7.5-.4 0-3-.2-8.9-.2-1.4 0-3.4.2-4.3.2-.5 0-.9-.1-.9-.4 0-.2.3-.5.7-.6 1.6-.3 1.9-.8 2-2.1.1-.7.1-3.8.1-7.9v-4.9c0-1-.2-1.5-1.5-1.8-.6-.1-.8-.3-.8-.6.1-.3.5-.4 1-.4zM331.3 19.675c-.1-1.4-.1-1.9-1.5-2.2-.7-.2-.9-.4-.9-.6 0-.2.4-.4.9-.4.8 0 2.3.1 3.3.1 1.4 0 2.4-.1 3.5-.1.5 0 .9.1.9.4 0 .3-.4.5-.9.6-1.5.3-1.5 1-1.6 1.8-.1.7-.1 1.7-.1 6.7 0 3.5 0 4.8.1 5.6.1 1.7.3 2.1 1.9 2.5.5.1.8.3.8.6s-.6.4-.9.4c-1.2 0-3.1-.2-4.4-.1-.8 0-1.7.1-2.8.1-.7 0-.9-.2-.9-.5 0-.2.3-.4.9-.6 1.3-.3 1.5-.9 1.6-2.2.1-1.1.1-4.1.1-6.6.1-1.4.1-4.4 0-5.5zM341.7 16.475c.6 0 2.9.1 4.4.1.1 0 .6.3.6.4.4.5 1.2 1.4 2.4 2.8 1.4 1.7 7.1 7.6 8.6 9.3.1.1.3-.1.3-.2.1-.8.1-4.1.1-6.6 0-1-.1-2.3-.2-3.1-.1-.6-.3-1.2-1.8-1.6-.6-.1-1-.3-1-.7 0-.2.3-.3.8-.3h2c1.4 0 2.6-.1 3.3-.1.5 0 .7.2.7.4s-.2.4-.7.6c-1.5.5-1.7 1-1.8 2.2-.1 1-.3 8.4-.3 10.8 0 1.2.2 3.8.2 4.5 0 .3-.3.6-.5.6-.6 0-1.3-.8-1.6-1.1-.6-.7-1.1-1.4-1.9-2.3-2.7-3.3-7.5-8.4-10-11.4-.1-.2-.3.1-.3.1-.1.8-.1 1.5-.1 3.8 0 4-.1 6.2.1 7.7.1.9.4 1.4 1.8 1.9.6.2.8.4.8.6 0 .3-.4.4-1 .4-.8 0-1.5-.1-2.5-.1-.6 0-2.3.1-2.8.1-.4 0-.8-.1-.8-.4 0-.3.3-.4.6-.5 1.3-.4 2-.6 2.1-2.8.1-3.2.5-8.8.5-10.9 0-1.2-.1-1.5-.2-1.6-.5-.6-.7-1-2.2-1.4-.3-.1-.8-.3-.8-.5.4-.5.7-.7 1.2-.7zM381.2 16.575c3.4 0 4.5-.1 4.8-.1.2 0 .4.2.4.3-.1.8.1 2.2.1 3.2 0 .4-.1.8-.4.8-.2 0-.5-.3-.7-1-.3-1.1-.9-2-1.9-2.1-.9-.1-3.4-.1-4-.1-.2 0-.4.3-.4.3-.1.9-.2 4.3-.2 6.2 0 .5.1 1 .3 1 .9 0 2.7 0 3.4-.1.9-.1 1.2-.3 1.5-1.3.1-.4.3-.8.6-.8.2 0 .3.4.3.7 0 .4-.1 1.3-.1 1.9 0 1 .1 1.7.1 2.2 0 .7-.3 1-.5 1-.1 0-.3-.2-.5-.8-.3-1-.8-1.3-1.2-1.4-.4-.1-1.2-.1-1.9-.1-.5 0-1.4 0-1.8.1-.1 0-.2.2-.3.3 0 1.9.1 4.8.1 5.3.1 1.2.3 1.5 1.8 1.8.5.1.8.3.8.6 0 .2-.4.4-1 .4-.8 0-1.8-.1-2.9-.1-1.5 0-3.2.2-4.1.2-.6 0-.8-.2-.8-.3 0-.3.3-.5.8-.6 1.3-.3 1.5-.8 1.6-1.5.1-.9.2-2.6.2-8.3 0-2.7 0-4.4-.1-5.1-.1-1-.4-1.4-1.5-1.7-.6-.1-.9-.3-.9-.6s.5-.4.9-.4c1.3 0 2.6.1 3.7.1h3.8zM400.2 17.075c1.2 0 2.8.7 3.8 1.6 2.1 1.9 3 5.4 3 7.7 0 3.1-1 5.6-2.2 6.8-.4.4-1.4 1.2-3 1.2-4.3 0-7-4.8-7-9.3 0-3.5 1-5.5 2-6.5.7-.7 2-1.5 3.4-1.5zm.5-.9c-2.5 0-4.9 1.1-6.2 2.1-2.2 1.7-3.7 4-3.7 7.5 0 2.6.9 4.9 2.5 6.6 1.8 1.9 4.5 3.1 7.5 3.1 2.3 0 4.7-.8 6.4-2.1 2.1-1.6 3.7-4.1 3.7-7.9 0-4.7-3.7-9.4-10.2-9.3zM415.8 16.475c1.2 0 2.3.1 3.4.1s2.7-.1 3.3-.1c.6 0 .8.2.8.4s-.3.5-.9.6c-1 .2-1.4.6-1.6 1.7-.1 1-.1 3.7-.1 7.8 0 3.4.7 4.4 1.6 5.4.8.8 2.7 1.3 3.5 1.3 2 0 4.4-.6 5.1-3.8.3-1.5.6-4 .6-8 0-1.9-.1-2.5-.1-2.8-.1-.9-.6-1.3-1.9-1.7-.3-.1-.8-.3-.8-.6 0-.2.3-.3.8-.3.7 0 1.7.1 2.7.1 1.2 0 1.9-.1 2.7-.1.5 0 .7.2.7.4s-.3.4-.8.5c-1.4.3-1.9.9-1.9 2.7 0 1.4-.2 4.8-.2 6.3-.2 4.9-1.7 6.9-3.7 8.1-1.3.8-2.8.9-4 .9-2.6 0-4.5-.9-5.5-1.8-1.6-1.5-2.3-3.2-2.3-7.9 0-2.2-.1-6.7-.1-7-.1-.6-.3-1.1-1.5-1.3-.3-.1-.8-.3-.8-.6.1-.2.5-.3 1-.3zM439.2 16.475c.6 0 2.9.1 4.4.1.1 0 .6.3.6.4.4.5 1.2 1.4 2.4 2.8 1.4 1.7 7.1 7.6 8.6 9.3.1.1.3-.1.3-.2.1-.8.1-4.1.1-6.6 0-1-.1-2.3-.2-3.1-.1-.6-.3-1.2-1.8-1.6-.6-.1-1-.3-1-.7 0-.2.3-.3.8-.3h2c1.4 0 2.6-.1 3.3-.1.5 0 .7.2.7.4s-.2.4-.7.6c-1.5.5-1.7 1-1.8 2.2-.1 1-.3 8.4-.3 10.8 0 1.2.2 3.8.2 4.5 0 .3-.3.6-.5.6-.6 0-1.3-.8-1.6-1.1-.6-.7-1.1-1.4-1.9-2.3-2.7-3.3-7.5-8.4-10-11.4-.1-.2-.3.1-.3.1-.1.8-.1 1.5-.1 3.8 0 4-.1 6.2.1 7.7.1.9.4 1.4 1.8 1.9.6.2.8.4.8.6 0 .3-.4.4-1 .4-.8 0-1.5-.1-2.5-.1-.6 0-2.3.1-2.8.1-.4 0-.8-.1-.8-.4 0-.3.3-.4.6-.5 1.3-.4 2-.6 2.1-2.8.1-3.2.5-8.8.5-10.9 0-1.2-.1-1.5-.2-1.6-.5-.6-.7-1-2.2-1.4-.3-.1-.8-.3-.8-.5.3-.5.7-.7 1.2-.7zM469.3 17.675c.3-.2.8-.3 1.6-.2 2 0 4.2.8 5.5 2.1 1.5 1.5 2.3 4 2.3 6 0 2.7-.9 5.5-2.7 7-1.6 1.3-3.2 1.7-4.4 1.7-.4 0-1.4-.4-1.9-.8-.3-.3-.5-.6-.6-1.3-.1-1.3-.1-2.8-.1-4.8v-4.2c0-2.5 0-4.4.1-5.1 0-.1 0-.3.2-.4zm10.5 1.4c-1.1-1-3.7-2.7-7.8-2.7-2.1 0-5.5.2-6.9.2h-1.5c-.5 0-.8.2-.8.4s.4.4.7.5c1.6.3 1.7.8 1.8 2.6.1 1.9.1 5.2.1 6.7 0 1.2 0 2.4-.1 4-.1 2.7-.2 3.1-2 3.3-.4.1-.8.3-.8.5 0 .3.4.5 1 .5h2c1.7.1 4.6.2 5.8.2 2.5 0 4.9-.6 6.6-1.6 2-1.2 4.6-4.1 4.6-8.2 0-2.4-1.1-4.9-2.7-6.4zM496 26.475c.1.2-.1.3-.1.2-1 0-3.1.1-4.2.1-.1 0-.2-.2-.2-.3.2-.7 1.6-4.3 2.1-5.7.1-.2.2-.3.3-.1.4 1 1.7 4.5 2.1 5.8zm0-9.8c-.3-.6-.3-.6-.4-.6-.1 0-.3.1-.5.4-.2.3-1 1.2-1.3 1.6-.1.2-.2.3-.2.4 0 .2-.1.5-.2.6-1.2 2.8-4.3 11.1-5 12.5-.8 1.7-1.1 2.2-2.6 2.6-.6.2-.7.4-.7.6 0 .1.1.3.8.3.5 0 1.8-.1 2.9-.1 1.1 0 1.8.1 2.3.1.5 0 .9-.2.9-.4 0-.3-.2-.5-.8-.6-1.1-.3-1.4-.7-1.4-1.3 0-.6.3-1.9 1.2-4.2 0-.1.2-.3.3-.3.4 0 1.8-.1 4.9-.1.4 0 .7.3.7.4.6 1.8 1.2 3.4 1.3 4.2 0 .4 0 .9-1.2 1.2-.6.1-.8.4-.8.5 0 .2.3.4.9.4.7 0 1.8-.1 2.8-.1.9 0 3.1.1 3.8.1.7 0 1-.2 1-.4s-.3-.4-.8-.5c-1-.3-1.6-.6-2.6-2.9-.5-1.5-2.5-6.7-4.1-11.2-.4-1-.9-2.5-1.2-3.2zM519.6 16.475c1.4-.1 1.9-.2 2.2-.4.2-.1.3-.3.5-.3.1 0 .4.3.3.8-.2.8-.5 2.3-.6 3.4 0 .3-.2.8-.6.8-.2 0-.4-.2-.5-.9-.3-1.7-.6-1.9-2.1-2-.7 0-2.8 0-3.5.1-.2 0-.3.3-.3.4v6c0 3.3 0 6.4.1 7.9.1.9.3 1.5 2.3 1.9.4.1.7.4.7.6 0 .3-.5.4-.8.4-.2 0-3.5-.1-4.3-.1-.9 0-3.1.2-3.6.2-.6 0-.9-.1-.9-.3 0-.3.3-.5.6-.6 1.9-.5 2-.8 2.1-2.9.1-1.7.3-7.5.3-9.7v-3.4c0-.3-.2-.4-.3-.4-.5-.1-2.6-.1-3.3-.1-.5 0-1.3.3-1.6.7-.3.3-.6.8-1 1.5-.3.6-.5.8-.6.8-.3 0-.4-.3-.4-.6 0-.6.5-2.5.6-3.9 0-.1.3-.6.5-.6s.3.3.5.5c.1.1.6.4 1.2.5.6.1 4.5.2 6.4.2 1.5-.4 5.2-.4 6.1-.5zM528.5 19.675c-.1-1.4-.1-1.9-1.5-2.2-.7-.2-.9-.4-.9-.6 0-.2.4-.4.9-.4.8 0 2.3.1 3.3.1 1.4 0 2.4-.1 3.5-.1.5 0 .9.1.9.4 0 .3-.4.5-.9.6-1.5.3-1.5 1-1.6 1.8-.1.7-.1 1.7-.1 6.7 0 3.5 0 4.8.1 5.6.1 1.7.3 2.1 1.9 2.5.5.1.8.3.8.6s-.6.4-.9.4c-1.2 0-3.1-.2-4.4-.1-.8 0-1.7.1-2.8.1-.7 0-.9-.2-.9-.5 0-.2.3-.4.9-.6 1.3-.3 1.5-.9 1.6-2.2.1-1.1.1-4.1.1-6.6.1-1.4.1-4.4 0-5.5zM548.3 17.075c1.2 0 2.8.7 3.8 1.6 2.1 1.9 3 5.4 3 7.7 0 3.1-1 5.6-2.2 6.8-.4.4-1.4 1.2-3 1.2-4.3 0-7-4.8-7-9.3 0-3.5 1-5.5 2-6.5.7-.7 2-1.5 3.4-1.5zm.5-.9c-2.5 0-4.9 1.1-6.2 2.1-2.2 1.7-3.7 4-3.7 7.5 0 2.6.9 4.9 2.5 6.6 1.8 1.9 4.5 3.1 7.5 3.1 2.3 0 4.7-.8 6.4-2.1 2.1-1.6 3.7-4.1 3.7-7.9 0-4.7-3.7-9.4-10.2-9.3zM563.6 16.475c.6 0 2.9.1 4.4.1.1 0 .6.3.6.4.4.5 1.2 1.4 2.4 2.8 1.4 1.7 7.1 7.6 8.6 9.3.1.1.3-.1.3-.2.1-.8.1-4.1.1-6.6 0-1-.1-2.3-.2-3.1-.1-.6-.3-1.2-1.8-1.6-.6-.1-1-.3-1-.7 0-.2.3-.3.8-.3h2c1.4 0 2.6-.1 3.3-.1.5 0 .7.2.7.4s-.2.4-.7.6c-1.5.5-1.7 1-1.8 2.2-.1 1-.3 8.4-.3 10.8 0 1.2.2 3.8.2 4.5 0 .3-.3.6-.5.6-.6 0-1.3-.8-1.6-1.1-.6-.7-1.1-1.4-1.9-2.3-2.7-3.3-7.5-8.4-10-11.4-.1-.2-.3.1-.3.1-.1.8-.1 1.5-.1 3.8 0 4-.1 6.2.1 7.7.1.9.4 1.4 1.8 1.9.6.2.8.4.8.6 0 .3-.4.4-1 .4-.8 0-1.5-.1-2.5-.1-.6 0-2.3.1-2.8.1-.4 0-.8-.1-.8-.4 0-.3.3-.4.6-.5 1.3-.4 2-.6 2.1-2.8.1-3.2.5-8.8.5-10.9 0-1.2-.1-1.5-.2-1.6-.5-.6-.7-1-2.2-1.4-.3-.1-.8-.3-.8-.5.3-.5.6-.7 1.2-.7z"/></g></svg>