<?xml version="1.0" encoding="UTF-8"?> <svg xmlns="http://www.w3.org/2000/svg" version="1.1" viewBox="0 0 696.4 84.5"><defs><style> .cls-1 { fill: #0088a6; } .cls-2 { fill: #0088a6; } .cls-3 { fill: #20368c; } </style></defs><g><g id="Layer_1"><g><path class="cls-3" d="M40.4,3.4c13.7,0,30.4,5.3,30.4,14.8v12.2h-16.9v-5.5c0-3.8-5.6-5.7-12.4-5.7-13.7,0-21.9,7.7-21.9,21.8s8.1,24.5,23,24.5,13.1-1.2,13.1-5.5v-5.2h-12.1v-13.7h29v25.1c0,11.3-21.3,15.1-32.3,15.1C17,81.3,0,64.6,0,41.9S16.8,3.4,40.4,3.4Z"></path><path class="cls-3" d="M119.3,3.4c9.2,0,30.5,3,30.5,15.1v11.9h-16.9v-5.8c0-4.2-7.7-5.4-12.8-5.4-12.2,0-20.8,7.9-20.8,21.9s9.3,24.4,21.8,24.4,12.5-.8,12.5-5.4v-5.8h16.9v12.1c0,11.5-20.3,14.9-30.8,14.9-23.1,0-40-17.1-40-39.1S97.3,3.4,119.3,3.4Z"></path><path class="cls-3" d="M160.3,66.4h8.4V18.4h-8.4V4.7h34.1c5.7,0,10.8.2,15.1,1.5,9.1,2.7,15.1,10.1,15.1,21.2s-4.7,16.7-12.2,20.7v.2s3,1.3,4.6,4.5l5.8,11.2c.9,1.8,2.4,2.4,4.8,2.4h2.6v13.7h-12.4c-6.1,0-8.5-1.5-10.6-5.6l-9.2-17.6c-1.3-2.4-2.6-3.3-6.5-3.3h-3.8v12.8h7.9v13.7h-35.2v-13.7ZM196.2,38.8c5.9,0,9.6-3,9.6-9.8s-.8-6.7-4.1-8.3c-1.7-.8-4.1-1.3-7.3-1.3h-6.7v19.4h8.5Z"></path><path class="cls-3" d="M240.5,66.4h8.4V18.4h-8.4V4.7h35.7v13.7h-8.4v48h8.4v13.7h-35.7v-13.7Z"></path></g><path class="cls-1" d="M310.1,84.5c-.9,0-1.6-.7-1.6-1.6V1.6c0-.9.7-1.6,1.6-1.6s1.6.7,1.6,1.6v81.3c0,.9-.7,1.6-1.6,1.6Z"></path><path class="cls-1" d="M365.1,26.9c0,7.8-4.8,13-12.5,13s-13.4-5.1-13.4-13.5,5.7-13.5,13.3-13.5,10.9,3.3,12.3,9l-5.6,1c-.7-3.2-3.1-5.2-6.7-5.2s-7.8,2.9-7.8,8.7,3.1,8.7,7.8,8.7,5.8-1.5,6.6-5.1h-6.6v-4.8h12.5v1.8Z"></path><path class="cls-1" d="M379.3,26.1c-3,0-4.8,1.7-4.8,4.2v9.2h-5.1v-18.2h5v2.1c.8-1.2,2.2-2.2,5-2.2v5Z"></path><path class="cls-1" d="M397,28.3v11.2h-5v-1.5c-1,1.1-2.6,1.9-4.6,1.9-3.7,0-6-1.9-6-5.4s3.4-5.3,7.3-5.5l3.2-.2v-.7c0-1.8-.8-2.8-2.4-2.8s-2.5,1.2-2.5,2.4l-5.1-.2c0-3.2,2.9-6.5,7.6-6.5s7.6,2.5,7.6,7.3ZM389.1,32.3c-1.5,0-2.6.6-2.6,1.9s.9,1.7,2.1,1.7c1.9,0,3.3-1,3.3-3v-.8l-2.7.2Z"></path><path class="cls-1" d="M418.7,28.4v11.1h-5.1v-10.1c0-2.3-1.2-3.6-3.2-3.6s-3.4,1.5-3.4,3.7v10.1h-5.1v-18.2h4.9v1.9c.8-1.3,2.4-2.2,4.9-2.2,4.2,0,7.1,2.7,7.1,7.4Z"></path><path class="cls-1" d="M429.9,32.5c0,2,1.3,2.7,2.7,2.7s1.2-.1,1.6-.2v4.6c-.7.1-1.4.2-2.8.2-3.9,0-6.6-1.9-6.6-6.1v-8s-3.3,0-3.3,0v-4.4h3.3v-6h5.2v6s4.2,0,4.2,0v4.4h-4.3v6.7Z"></path><path class="cls-1" d="M465.6,28.3v11.1h-5.1v-10.1c0-2.3-1.1-3.6-3-3.6s-3,1.2-3.2,3v10.7h-5.1v-10.1c0-2.3-1.1-3.6-3-3.6s-3.3,1.5-3.3,3.7v10.1h-5.1v-18.2h4.9v1.9c.8-1.3,2.3-2.2,4.8-2.2s4.5,1,5.7,2.9c1.1-1.7,2.8-2.9,5.6-2.9,4.1,0,6.9,2.8,6.9,7.4Z"></path><path class="cls-1" d="M485.1,28.3v11.2h-5v-1.5c-1,1.1-2.6,1.9-4.6,1.9-3.7,0-6-1.9-6-5.4s3.4-5.3,7.3-5.5l3.2-.2v-.7c0-1.8-.8-2.8-2.4-2.8s-2.5,1.2-2.5,2.4l-5.1-.2c0-3.2,2.9-6.5,7.6-6.5s7.6,2.5,7.6,7.3ZM477.3,32.3c-1.5,0-2.6.6-2.6,1.9s.9,1.7,2.1,1.7c1.9,0,3.3-1,3.3-3v-.8l-2.7.2Z"></path><path class="cls-1" d="M500.3,21.3h6.2l-6.9,7.8,7.3,10.4h-6.2l-4.7-6.6-1.6,1.8v4.8h-5.1V12.2h5.1v15.6l5.9-6.5Z"></path><path class="cls-1" d="M512.9,32c.1,2.2,1.5,3.7,3.8,3.7s3-.7,3.3-2l5.2.2c-.6,3.4-4.1,5.9-8.4,5.9s-9.4-3.6-9.4-9.5,3.8-9.5,9.2-9.5,8.7,3.4,8.7,9v2h-12.5ZM512.9,28.6h7.3c-.1-2.2-1.2-3.7-3.5-3.7s-3.6,1.3-3.8,3.7Z"></path><path class="cls-1" d="M539.4,26.1c-3,0-4.8,1.7-4.8,4.2v9.2h-5.1v-18.2h5v2.1c.8-1.2,2.2-2.2,5-2.2v5Z"></path><path class="cls-1" d="M556.3,26.8l-5.1.3c0-1.3-.7-2.2-2.3-2.2s-2.1.6-2.1,1.5,1.4,1.4,3.6,2c3.6,1,6.2,2.1,6.2,5.4s-2.7,6-7.5,6-7.3-2.1-7.7-5.9l5.1-.3c0,1.3.9,2.2,2.6,2.2s2.3-.6,2.3-1.7-.7-1.4-3.3-2.1c-3.9-1-6.4-1.8-6.4-5.5s2.7-5.7,7.3-5.7,7,2.5,7.3,5.9Z"></path><path class="cls-1" d="M593.5,22.8l-5.7.5c-.7-3.7-3.4-5.7-7-5.7s-7.7,3.4-7.7,8.7,3.4,8.7,7.7,8.7,6.3-1.9,7-5.6l5.7.5c-1,6.1-6.1,9.9-12.5,9.9s-13.4-5.1-13.4-13.5,5.7-13.5,13.4-13.5,11.5,3.8,12.5,10Z"></path><path class="cls-1" d="M615.1,30.4c0,5.7-4.1,9.5-9.7,9.5s-9.7-3.8-9.7-9.5,4.1-9.5,9.7-9.5,9.7,3.7,9.7,9.5ZM601,30.4c0,3.2,1.8,5,4.5,5s4.5-1.9,4.5-5-1.8-5.1-4.5-5.1-4.5,1.9-4.5,5.1Z"></path><path class="cls-1" d="M629.7,39.5v-1.8c-.7,1.1-2.1,2.2-4.7,2.2-4.2,0-6.7-2.7-6.7-7.1v-11.4h5.1v10.3c0,2.2.9,3.4,2.9,3.4s3.1-1.5,3.1-3.5v-10.3h5.1v18.2h-4.9Z"></path><path class="cls-1" d="M656.1,28.4v11.1h-5.1v-10.1c0-2.3-1.2-3.6-3.2-3.6s-3.4,1.5-3.4,3.7v10.1h-5.1v-18.2h4.9v1.9c.8-1.3,2.4-2.2,4.9-2.2,4.2,0,7.1,2.7,7.1,7.4Z"></path><path class="cls-1" d="M677.2,28l-5,.4c-.2-1.9-1.6-3.1-3.6-3.1s-4.1,1.8-4.1,5.1,1.7,5,4.1,5,3.3-1.1,3.6-3l5,.5c-.7,4.3-4.1,6.9-8.6,6.9s-9.3-3.5-9.3-9.5,3.9-9.5,9.3-9.5,7.9,2.6,8.6,7Z"></path><path class="cls-1" d="M686.8,15.4c0,1.7-1.4,3.1-3.1,3.1s-3.1-1.4-3.1-3.1,1.4-3.1,3.1-3.1,3.1,1.4,3.1,3.1ZM681.1,39.5v-18.2h5.1v18.2h-5.1Z"></path><path class="cls-2" d="M691.3,39.5V12.2h5.1v27.3h-5.1Z"></path><g><path class="cls-1" d="M354.4,64.4c0,4.5-3.2,7.4-7.4,7.4s-7.5-2.9-7.5-7.4,3.1-7.4,7.5-7.4,7.4,2.9,7.4,7.4ZM342.6,64.4c0,2.9,1.8,4.8,4.4,4.8s4.4-1.8,4.4-4.8-1.8-4.8-4.4-4.8-4.4,1.8-4.4,4.8Z"></path><path class="cls-1" d="M361.2,59.9v3.1h5.1v2.6h-5.1v6h-3v-14.3h9.2v2.6h-6.2Z"></path><path class="cls-1" d="M382.7,66.4h-2.4v5.2h-3v-14.3h6.1c2.7,0,4.6,1.6,4.6,4.6s-.9,3.4-2.3,4.1l3,5.6h-3.3l-2.8-5.2ZM383.1,63.8c1.1,0,2-.7,2-2s-.8-2-2-2h-2.8v3.9h2.8Z"></path><path class="cls-1" d="M401.3,71.6v-6h-5.8v6h-3v-14.3h3v5.7h5.8v-5.7h2.9v14.3h-2.9Z"></path><path class="cls-1" d="M422.9,64.4c0,4.5-3.2,7.4-7.4,7.4s-7.5-2.9-7.5-7.4,3.1-7.4,7.5-7.4,7.4,2.9,7.4,7.4ZM411,64.4c0,2.9,1.8,4.8,4.4,4.8s4.4-1.8,4.4-4.8-1.8-4.8-4.4-4.8-4.4,1.8-4.4,4.8Z"></path><path class="cls-1" d="M432.6,57.3c4.1,0,7.1,2.7,7.1,7.2s-3,7.2-7.1,7.2h-5.9v-14.3h5.9ZM429.7,69.1h3c2.5,0,4.2-1.6,4.2-4.6s-1.6-4.6-4.2-4.6h-3v9.3Z"></path><path class="cls-1" d="M446.5,59.9v3.1h5.4v2.5h-5.4v3.4h6.2v2.6h-9.2v-14.3h9.2v2.6h-6.2Z"></path><path class="cls-1" d="M462.9,71.6v-14.3h3v14.3h-3Z"></path><path class="cls-1" d="M480.7,61.5l-3,.2c0-1.2-.9-2-2.2-2s-2.1.7-2.1,1.7.8,1.4,2.8,1.9c2.9.7,4.9,1.7,4.9,4.2s-2.4,4.4-5.3,4.4-5.7-1.6-5.7-4.6l3-.2c0,1.3,1.2,2.2,2.7,2.2s2.3-.5,2.3-1.6-1-1.5-2.9-2c-2.6-.7-4.7-1.4-4.7-4.2s1.7-4.4,5.1-4.4,5.2,1.6,5.3,4.4Z"></path><path class="cls-1" d="M494.1,69v2.6h-9.2v-14.3h3v11.7h6.2Z"></path><path class="cls-1" d="M508.1,71.6l-1.2-2.8h-6l-1.2,2.8h-3.2l6.2-14.3h2.5l6.2,14.3h-3.3ZM505.9,66.4l-1.9-4.6-1.9,4.6h3.9Z"></path><path class="cls-1" d="M523.8,71.6l-6.3-8.9v8.9h-3v-14.3h2.5l6.3,8.9v-8.9h3v14.3h-2.5Z"></path><path class="cls-1" d="M536.8,57.3c4.1,0,7.1,2.7,7.1,7.2s-3,7.2-7.1,7.2h-5.9v-14.3h5.9ZM533.8,69.1h3c2.5,0,4.2-1.6,4.2-4.6s-1.6-4.6-4.2-4.6h-3v9.3Z"></path></g></g></g></svg> 